<svg width="23" height="23" viewBox="0 0 23 23" fill="none" xmlns="http://www.w3.org/2000/svg">
<path d="M14.78 2.84207C14.5488 1.22191 13.1386 0 11.4998 0C10.4459 0 9.44499 0.508568 8.82267 1.3609C8.69556 1.53473 8.73359 1.77856 8.90742 1.90567C9.08067 2.03233 9.32507 1.99476 9.45196 1.8207C9.92832 1.16892 10.6937 0.779698 11.4997 0.779698C12.753 0.779698 13.8313 1.71369 14.0081 2.95205C14.0359 3.14654 14.2028 3.28691 14.3936 3.28691C14.4118 3.28691 14.4305 3.28553 14.4491 3.28302C14.6622 3.25253 14.8104 3.05506 14.78 2.84207Z" fill="#7A7A7A"/>
<path d="M20.4103 7.20606L19.2408 5.25687C19.1705 5.13935 19.0436 5.06763 18.9065 5.06763H17.7858C17.5707 5.06763 17.396 5.24225 17.396 5.45742C17.396 5.67259 17.5707 5.84721 17.7858 5.84721H18.6859L19.3876 7.0167H3.61193L4.31362 5.84721H4.72649C4.94165 5.84721 5.11628 5.67259 5.11628 5.45742C5.11628 5.24225 4.94165 5.06763 4.72649 5.06763H4.09297C3.95592 5.06763 3.82904 5.13935 3.75869 5.25687L2.5892 7.20606C2.5169 7.32666 2.51519 7.47661 2.58429 7.59882C2.65338 7.72102 2.78289 7.79662 2.92348 7.79662H20.076C20.2166 7.79662 20.346 7.72102 20.4152 7.59882C20.4844 7.47661 20.4826 7.32643 20.4103 7.20606Z" fill="#7A7A7A"/>
<path d="M18.4672 3.61161C18.4126 3.52356 18.3255 3.46108 18.2247 3.43756L12.9105 2.19463C12.8099 2.17099 12.7039 2.18858 12.616 2.24294C12.5283 2.29753 12.4657 2.38467 12.4422 2.4854L12.0414 4.19852C11.9923 4.4081 12.1225 4.61778 12.3322 4.66666C12.5417 4.71577 12.7517 4.58558 12.8005 4.37589L13.1126 3.04251L17.6675 4.10796L16.9518 7.16816C16.9027 7.37773 17.0329 7.58742 17.2425 7.6363C17.2726 7.64327 17.3024 7.64658 17.3318 7.64658C17.5089 7.64658 17.6691 7.52529 17.7108 7.34564L18.5154 3.90592C18.5391 3.80531 18.5218 3.69932 18.4672 3.61161Z" fill="#7A7A7A"/>
<path d="M11.706 4.53316L11.3508 1.52892C11.3387 1.42624 11.2863 1.33248 11.2049 1.26852C11.1236 1.20456 11.021 1.17533 10.9178 1.18743L4.39769 1.95811C4.18401 1.98346 4.0312 2.17716 4.05644 2.39107L4.64861 7.40172C4.67213 7.6001 4.84036 7.74594 5.03531 7.74594C5.0505 7.74594 5.06615 7.74491 5.08168 7.7432C5.29525 7.71785 5.44806 7.52415 5.42294 7.31024L4.87645 2.68641L10.6224 2.00733L10.9316 4.62441C10.957 4.83821 11.1498 4.9901 11.3646 4.96589C11.5783 4.94076 11.7311 4.74695 11.706 4.53316Z" fill="#7A7A7A"/>
<path d="M14.789 7.25859L14.0153 4.0409C13.9911 3.94051 13.9279 3.8536 13.8399 3.79958C13.7518 3.74601 13.6462 3.72922 13.5451 3.75321L7.26512 5.26349C7.05578 5.31375 6.92695 5.52435 6.9772 5.73369L7.36391 7.34197C7.41416 7.55154 7.62476 7.68048 7.83399 7.62988C8.04334 7.57963 8.17216 7.36903 8.12191 7.15969L7.82623 5.93035L13.3482 4.60257L14.0308 7.4411C14.0736 7.61983 14.2335 7.73975 14.4095 7.73975C14.4398 7.73975 14.4704 7.73621 14.5011 7.72879C14.7105 7.67842 14.8393 7.46794 14.789 7.25859Z" fill="#7A7A7A"/>
<path d="M20.4657 7.38686C20.455 7.17969 20.2839 7.01706 20.0763 7.01706H2.92372C2.71609 7.01706 2.54501 7.17958 2.53427 7.38686L1.75457 22.5902C1.74909 22.6969 1.78769 22.8013 1.86124 22.8787C1.93491 22.956 2.03701 23 2.14391 23H20.8557C20.9625 23 21.0647 22.9562 21.1387 22.8787C21.2122 22.8013 21.2508 22.697 21.2454 22.5902L20.4657 7.38686ZM2.55414 22.2203L3.29387 7.79664H19.7057L20.4454 22.2203H2.55414Z" fill="#7A7A7A"/>
<path d="M14.4236 8.57623C13.7786 8.57623 13.2541 9.10079 13.2541 9.74572C13.2541 10.3907 13.7786 10.9152 14.4236 10.9152C15.0685 10.9152 15.5931 10.3907 15.5931 9.74572C15.5931 9.10079 15.0685 8.57623 14.4236 8.57623ZM14.4236 10.1356C14.2085 10.1356 14.0338 9.96078 14.0338 9.74584C14.0338 9.5309 14.2086 9.35604 14.4236 9.35604C14.6385 9.35604 14.8134 9.5309 14.8134 9.74584C14.8134 9.96078 14.6385 10.1356 14.4236 10.1356Z" fill="#7A7A7A"/>
<path d="M8.57611 8.57623C7.93117 8.57623 7.40662 9.10079 7.40662 9.74572C7.40662 10.3907 7.93117 10.9152 8.57611 10.9152C9.22104 10.9152 9.7456 10.3907 9.7456 9.74572C9.7456 9.10079 9.22104 8.57623 8.57611 8.57623ZM8.57611 10.1356C8.36117 10.1356 8.18631 9.96078 8.18631 9.74584C8.18631 9.5309 8.36117 9.35604 8.57611 9.35604C8.79105 9.35604 8.9659 9.5309 8.9659 9.74584C8.9659 9.96078 8.79105 10.1356 8.57611 10.1356Z" fill="#7A7A7A"/>
<path d="M14.4235 9.74573H14.3935C14.1783 9.74573 14.0037 9.92035 14.0037 10.1355C14.0037 10.1887 14.0142 10.2396 14.0338 10.2858V12.2795C14.0338 13.6767 12.897 14.8135 11.4998 14.8135C10.1026 14.8135 8.96589 13.6768 8.96589 12.2795V10.1356C8.96589 9.92047 8.79127 9.74584 8.5761 9.74584C8.36093 9.74584 8.18631 9.92047 8.18631 10.1356V12.2797C8.18631 14.1068 9.67273 15.5932 11.4998 15.5932C13.3269 15.5932 14.8133 14.1068 14.8133 12.2797V10.1356C14.8133 9.92047 14.6387 9.74573 14.4235 9.74573Z" fill="#7A7A7A"/>
</svg>
